<svg xmlns="http://www.w3.org/2000/svg" xmlns:xlink="http://www.w3.org/1999/xlink" width="20" height="20" viewBox="0 0 20 20" fill="none"><defs><rect id="path_0" x="0" y="0" width="20" height="20" /></defs><g opacity="1" transform="translate(0 0)  rotate(0 10 10)"><mask id="bg-mask-0" fill="white"><use xlink:href="#path_0"></use></mask><g mask="url(#bg-mask-0)" ><path id="分组 1" fill-rule="evenodd" style="fill:#000000" transform="translate(0 -3.1086244689504383e-15)  rotate(0 10 10.000000000000002)" opacity="1" d="M2.83 2.92C3.14 1.84 3.69 0.84 4.45 0L3.75 0C1.68 0 0 1.68 0 3.75L0 16.25C0 18.32 1.68 20 3.75 20L16.25 20C18.32 20 20 18.32 20 16.25L20 3.75C20 1.68 18.32 0 16.25 0L15.55 0C16.31 0.84 16.86 1.84 17.17 2.92C17.37 3.14 17.5 3.43 17.5 3.75L17.5 16.25C17.5 16.94 16.94 17.5 16.25 17.5L3.75 17.5C3.06 17.5 2.5 16.94 2.5 16.25L2.5 3.75C2.5 3.43 2.63 3.14 2.83 2.92Z M10 15C10 15 15 7.76 15 5C15 2.24 12.76 3.10862e-15 10 3.10862e-15C7.24 3.10862e-15 5 2.24 5 5C5 7.76 10 15 10 15Z M10 2.5C8.62 2.5 7.5 3.62 7.5 5C7.5 6.38 8.62 7.5 10 7.5C11.38 7.5 12.5 6.38 12.5 5C12.5 3.62 11.38 2.5 10 2.5Z " /></g></g></svg>